<?xml version="1.0" encoding="UTF-8" standalone="no"?>
<svg
   xmlns:dc="http://purl.org/dc/elements/1.1/"
   xmlns:cc="http://creativecommons.org/ns#"
   xmlns:rdf="http://www.w3.org/1999/02/22-rdf-syntax-ns#"
   xmlns:svg="http://www.w3.org/2000/svg"
   xmlns="http://www.w3.org/2000/svg"
   xmlns:sodipodi="http://sodipodi.sourceforge.net/DTD/sodipodi-0.dtd"
   xmlns:inkscape="http://www.inkscape.org/namespaces/inkscape"
   height="1024"
   width="896"
   id="svg3049"
   version="1.1"
   inkscape:version="0.48.4 r9939"
   sodipodi:docname="log_in.svg">
  <metadata
     id="metadata3057">
    <rdf:RDF>
      <cc:Work
         rdf:about="">
        <dc:format>image/svg+xml</dc:format>
        <dc:type
           rdf:resource="http://purl.org/dc/dcmitype/StillImage" />
        <dc:title></dc:title>
      </cc:Work>
    </rdf:RDF>
  </metadata>
  <defs
     id="defs3055" />
  <sodipodi:namedview
     pagecolor="#ffffff"
     bordercolor="#666666"
     borderopacity="1"
     objecttolerance="10"
     gridtolerance="10"
     guidetolerance="10"
     inkscape:pageopacity="0"
     inkscape:pageshadow="2"
     inkscape:window-width="1309"
     inkscape:window-height="744"
     id="namedview3053"
     showgrid="false"
     inkscape:zoom="0.58300781"
     inkscape:cx="448"
     inkscape:cy="512"
     inkscape:window-x="57"
     inkscape:window-y="24"
     inkscape:window-maximized="1"
     inkscape:current-layer="svg3049" />
  <path
     d="M640 576L640 448 896 448 896 320 640 320 640 192 448 336 448 192 192 64 704 64 704 256 768 256 768 0 64 0 64 832 448 1024 448 832 768 832 768 512 704 512 704 768 448 768 448 432z"
     id="path3051" />
  <path
     style="fill:#ffffff"
     d="m 255.12094,926.82111 -189.963151,-95.10292 0,-415.08724 0,-415.0872314 350.767171,0 350.76717,0 0,126.9279714 0,126.92797 -30.87437,0 -30.87438,0 0,-96.0536 0,-96.053598 -256.53004,0 c -141.09152,0 -256.15811,0.578895 -255.70354,1.286432 0.45458,0.707538 58.00365,29.841055 127.88683,64.741146 l 127.06032,63.45472 0,71.62065 c 0,39.39138 0.51394,71.62067 1.1421,71.62067 0.62815,0 43.85227,-32.03466 96.0536,-71.18814 l 94.9115,-71.18813 0,63.46954 0,63.46954 127.7856,0 127.78559,0 0,63.46399 0,63.46399 -127.78559,0 -127.7856,0 0,63.46954 0,63.46955 -94.9115,-71.18814 c -52.20133,-39.15347 -95.42545,-71.18814 -96.0536,-71.18814 -0.62816,0 -1.1421,75.64221 -1.1421,168.0938 l 0,168.09381 128.64322,0 128.64321,0 0,-127.7856 0,-127.78559 30.87438,0 30.87437,0 0,159.51759 0,159.51758 -159.51759,0 -159.51759,0 0,95.19598 c 0,52.35779 -0.57889,95.15345 -1.28643,95.10135 -0.70754,-0.052 -86.76985,-42.89088 -191.24958,-95.19749 z"
     id="path3059"
     inkscape:connector-curvature="0" />
</svg>
