<?xml version="1.0" encoding="UTF-8" standalone="no"?>
<svg
   xmlns:dc="http://purl.org/dc/elements/1.1/"
   xmlns:cc="http://creativecommons.org/ns#"
   xmlns:rdf="http://www.w3.org/1999/02/22-rdf-syntax-ns#"
   xmlns:svg="http://www.w3.org/2000/svg"
   xmlns="http://www.w3.org/2000/svg"
   xmlns:sodipodi="http://sodipodi.sourceforge.net/DTD/sodipodi-0.dtd"
   xmlns:inkscape="http://www.inkscape.org/namespaces/inkscape"
   height="1024"
   width="896"
   id="svg3125"
   version="1.1"
   inkscape:version="0.48.4 r9939"
   sodipodi:docname="parameter.svg">
  <metadata
     id="metadata3133">
    <rdf:RDF>
      <cc:Work
         rdf:about="">
        <dc:format>image/svg+xml</dc:format>
        <dc:type
           rdf:resource="http://purl.org/dc/dcmitype/StillImage" />
      </cc:Work>
    </rdf:RDF>
  </metadata>
  <defs
     id="defs3131" />
  <sodipodi:namedview
     pagecolor="#ffffff"
     bordercolor="#666666"
     borderopacity="1"
     objecttolerance="10"
     gridtolerance="10"
     guidetolerance="10"
     inkscape:pageopacity="0"
     inkscape:pageshadow="2"
     inkscape:window-width="1309"
     inkscape:window-height="744"
     id="namedview3129"
     showgrid="false"
     inkscape:zoom="0.23046875"
     inkscape:cx="448"
     inkscape:cy="512"
     inkscape:window-x="57"
     inkscape:window-y="24"
     inkscape:window-maximized="1"
     inkscape:current-layer="svg3125" />
  <path
     d="M447.938 350C358.531 350 286 422.531 286 512c0 89.375 72.531 162.062 161.938 162.062 89.438 0 161.438-72.688 161.438-162.062C609.375 422.531 537.375 350 447.938 350zM772.625 605.062l-29.188 70.312 52.062 102.25 6.875 13.5-72.188 72.188L611.75 807.375l-70.312 28.875L505.75 945.5l-4.562 14.5H399.156L355 836.688l-70.312-29-102.404 51.938-13.5 6.75-72.156-72.125 55.875-118.5-28.969-70.25L14.469 569.875 0 565.188V463.219L123.406 419l28.969-70.188-51.906-102.469-6.844-13.438 72.062-72.062 118.594 55.844 70.219-29.031 35.656-109.188L394.75 64h102l44.188 123.469 70.125 29.031L713.5 164.53099999999995l13.625-6.844 72.125 72.062-55.875 118.406L772.25 418.5l109.375 35.656L896 458.75v101.938L772.625 605.062z"
     id="path3127" />
  <path
     style="fill:#ffffff"
     d="m 380.01768,898.95311 c -11.28587,-31.69336 -22.76816,-59.93073 -25.51618,-62.74972 -2.74803,-2.81895 -19.60202,-10.88395 -37.45332,-17.92221 l -32.45691,-12.79679 -57.60475,28.70901 -57.60475,28.70905 -34.84795,-34.84793 -34.847936,-34.84794 27.795966,-58.63706 27.79597,-58.6371 -14.28311,-34.45435 c -7.85572,-18.9499 -16.87323,-35.98349 -20.03891,-37.85246 -3.16569,-1.86897 -31.138851,-11.80399 -62.16258,-22.07779 L 2.3864407,562.8682 l 0,-49.00114 0,-49.00111 61.6628803,-21.91855 61.662879,-21.91855 13.20791,-32.83307 c 7.26435,-18.05819 13.19741,-35.30163 13.18458,-38.31875 -0.013,-3.01713 -12.56615,-30.51622 -27.89627,-61.1091 l -27.87293,-55.6234 34.88974,-34.88974 34.88974,-34.88974 58.584,27.83724 58.584,27.83724 36.39349,-14.27909 36.3935,-14.27908 20.51263,-61.95943 20.51262,-61.95942 49.40441,1.213661 49.40445,1.21366 20.74797,57.933909 c 11.4114,31.86364 22.40382,59.51042 24.42765,61.43728 2.02379,1.92686 18.53301,9.69164 36.68719,17.25506 l 33.00755,13.7517 57.70639,-28.91673 57.7064,-28.91673 34.79317,34.79316 34.79314,34.79315 -27.48768,58.67025 -27.48767,58.67025 14.79415,35.64685 14.79411,35.64685 60.74576,20.22755 60.74577,20.22756 1.1736,49.54247 1.17366,49.54251 -61.6015,21.81653 -61.6015,21.8165 -15.22184,36.09239 -15.22185,36.0924 28.64215,57.47053 28.64214,57.47052 -34.8567,34.85666 -34.8567,34.8567 -58.13013,-27.62158 -58.13018,-27.62157 -35.73439,14.63973 -35.73439,14.63977 -19.78099,60.16946 -19.78099,60.16941 -50.16047,1.21752 -50.16044,1.21756 -20.51977,-57.62434 z M 516.55593,660.83831 C 581.22492,630.55794 620.47132,556.48707 608.33935,487.61281 592.91709,400.05925 524.9323,344.70605 439.00368,349.73973 280.06971,359.05006 227.24054,566.3002 362.08406,651.49731 c 27.36074,17.28711 49.19884,22.39557 91.55662,21.41717 31.6475,-0.73098 43.5751,-3.02041 62.91525,-12.07617 l 0,0 z"
     id="path3135"
     inkscape:connector-curvature="0" />
</svg>
